<svg xmlns="http://www.w3.org/2000/svg" viewBox="0 0 256 256" role="img" aria-label="Glentronics">
  <defs>
    <linearGradient id="bg" x1="0" y1="0" x2="1" y2="1">
      <stop offset="0%" stop-color="#0f766e"/>
      <stop offset="100%" stop-color="#164e63"/>
    </linearGradient>
    <linearGradient id="drop" x1="0" y1="0" x2="0" y2="1">
      <stop offset="0%" stop-color="#93c5fd"/>
      <stop offset="100%" stop-color="#38bdf8"/>
    </linearGradient>
  </defs>
  <rect width="256" height="256" rx="40" fill="url(#bg)"/>
  <circle cx="128" cy="116" r="88" fill="#0b3b4a" stroke="#67e8f9" stroke-width="8"/>
  <path d="M128 56c24 34 42 54 42 78 0 23-19 42-42 42s-42-19-42-42c0-24 18-44 42-78z" fill="url(#drop)"/>
  <path d="M112 124c0-12 8-22 20-26-14 1-30 12-30 32 0 14 10 27 24 31-9-7-14-16-14-27z" fill="#dbeafe" opacity="0.8"/>
  <text x="128" y="222" text-anchor="middle" font-family="Verdana, sans-serif" font-size="24" fill="#ecfeff">GLENTRONICS</text>
</svg>
